# xmcd
#
# Track frame offsets: 
#        150
#        20780
#        40055
#        57363
#        70875
#        89290
#        111262
#        138802
#        154270
#        172995
#        185561
#        205818
#        221244
#        245283
#        264174
#
# Disc length: 3712 seconds
#
# Revision: 0
# Processed by: cddbd v1.5.2PL0 Copyright (c) Steve Scherf et al.
# Submitted via: ExactAudioCopy v1.0b4
#
DISCID=d40e7e0f
DTITLE=Trickbag - With Friends Vol. 2
DYEAR=2016
DGENRE=Blues
TTITLE0=Hurt Me
TTITLE1=She's A Killer
TTITLE2=Keep Your Hand Out Of My Pocket
TTITLE3=I Don't Love You No More
TTITLE4=Plaything
TTITLE5=How Much More
TTITLE6=Walkin' Down Pico
TTITLE7=Rockin' Fever
TTITLE8=Me And You
TTITLE9=Angel Child
TTITLE10=I Found My Peace Of Mind
TTITLE11=Trickster
TTITLE12=Dragnet Blues
TTITLE13=Love And War
TTITLE14=Lucille
EXTD=
EXTT0=
EXTT1=
EXTT2=
EXTT3=
EXTT4=
EXTT5=
EXTT6=
EXTT7=
EXTT8=
EXTT9=
EXTT10=
EXTT11=
EXTT12=
EXTT13=
EXTT14=
PLAYORDER=
